HIERARCHY
ROOT Hips
{
	OFFSET 0.00000 0.00000 0.00000
	CHANNELS 6 Xposition Yposition Zposition Zrotation Yrotation Xrotation 
	JOINT LHipJoint
	{
		OFFSET 0 0 0
		CHANNELS 3 Zrotation Yrotation Xrotation
		JOINT LeftUpLeg
		{
			OFFSET 1.57093 -1.69714 0.87455
			CHANNELS 3 Zrotation Yrotation Xrotation
			JOINT LeftLeg
			{
				OFFSET 2.48056 -6.81529 0.00000
				CHANNELS 3 Zrotation Yrotation Xrotation
				JOINT LeftFoot
				{
					OFFSET 2.62558 -7.21374 0.00000
					CHANNELS 3 Zrotation Yrotation Xrotation
					JOINT LeftToeBase
					{
						OFFSET 0.17911 -0.49210 2.16707
						CHANNELS 3 Zrotation Yrotation Xrotation
						End Site
						{
							OFFSET 0.00000 -0.00000 1.11848
						}
					}
				}
			}
		}
	}
	JOINT RHipJoint
	{
		OFFSET 0 0 0
		CHANNELS 3 Zrotation Yrotation Xrotation
		JOINT RightUpLeg
		{
			OFFSET -1.69739 -1.69715 0.87455
			CHANNELS 3 Zrotation Yrotation Xrotation
			JOINT RightLeg
			{
				OFFSET -2.33658 -6.41972 0.00000
				CHANNELS 3 Zrotation Yrotation Xrotation
				JOINT RightFoot
				{
					OFFSET -2.60856 -7.16696 0.00000
					CHANNELS 3 Zrotation Yrotation Xrotation
					JOINT RightToeBase
					{
						OFFSET -0.20854 -0.57296 2.11053
						CHANNELS 3 Zrotation Yrotation Xrotation
						End Site
						{
							OFFSET -0.00000 -0.00000 1.09848
						}
					}
				}
			}
		}
	}
	JOINT LowerBack
	{
		OFFSET 0 0 0
		CHANNELS 3 Zrotation Yrotation Xrotation
		JOINT Spine
		{
			OFFSET 0.02563 2.15732 -0.03270
			CHANNELS 3 Zrotation Yrotation Xrotation
			JOINT Spine1
			{
				OFFSET 0.00281 2.14662 0.09285
				CHANNELS 3 Zrotation Yrotation Xrotation
				JOINT Neck
				{
					OFFSET 0 0 0
					CHANNELS 3 Zrotation Yrotation Xrotation
					JOINT Neck1
					{
						OFFSET -0.04440 1.68397 0.17601
						CHANNELS 3 Zrotation Yrotation Xrotation
						JOINT Head
						{
							OFFSET 0.06040 1.66995 -0.35615
							CHANNELS 3 Zrotation Yrotation Xrotation
							End Site
							{
								OFFSET 0.02405 1.72189 -0.14044
							}
						}
					}
				}
				JOINT LeftShoulder
				{
					OFFSET 0 0 0
					CHANNELS 3 Zrotation Yrotation Xrotation
					JOINT LeftArm
					{
						OFFSET 2.98955 1.90907 -0.21660
						CHANNELS 3 Zrotation Yrotation Xrotation
						JOINT LeftForeArm
						{
							OFFSET 4.91377 -0.00000 0.00000
							CHANNELS 3 Zrotation Yrotation Xrotation
							JOINT LeftHand
							{
								OFFSET 3.00291 -0.00000 -0.00000
								CHANNELS 3 Zrotation Yrotation Xrotation
								JOINT LeftFingerBase
								{
									OFFSET 0 0 0
									CHANNELS 3 Zrotation Yrotation Xrotation
									JOINT LeftHandIndex1
									{
										OFFSET 0.45092 -0.00000 -0.00000
										CHANNELS 3 Zrotation Yrotation Xrotation
										End Site
										{
											OFFSET 0.36355 -0.00000 -0.00000
										}
									}
								}
								JOINT LThumb
								{
									OFFSET 0 0 0
									CHANNELS 3 Zrotation Yrotation Xrotation
									End Site
									{
										OFFSET 0.36910 -0.00000 0.36910
									}
								}
							}
						}
					}
				}
				JOINT RightShoulder
				{
					OFFSET 0 0 0
					CHANNELS 3 Zrotation Yrotation Xrotation
					JOINT RightArm
					{
						OFFSET -2.80452 1.90886 -0.21152
						CHANNELS 3 Zrotation Yrotation Xrotation
						JOINT RightForeArm
						{
							OFFSET -4.86725 -0.00000 0.00000
							CHANNELS 3 Zrotation Yrotation Xrotation
							JOINT RightHand
							{
								OFFSET -3.17144 -0.00000 -0.00000
								CHANNELS 3 Zrotation Yrotation Xrotation
								JOINT RightFingerBase
								{
									OFFSET 0 0 0
									CHANNELS 3 Zrotation Yrotation Xrotation
									JOINT RightHandIndex1
									{
										OFFSET -0.41937 -0.00000 -0.00000
										CHANNELS 3 Zrotation Yrotation Xrotation
										End Site
										{
											OFFSET -0.33810 -0.00000 -0.00000
										}
									}
								}
								JOINT RThumb
								{
									OFFSET 0 0 0
									CHANNELS 3 Zrotation Yrotation Xrotation
									End Site
									{
										OFFSET -0.34327 -0.00000 0.34327
									}
								}
							}
						}
					}
				}
			}
		}
	}
}
MOTION
Frames: 9
Frame Time: .0083333
2.2073 13.6938 8.8766 0 0 0 0 0 0 -21 0 0 0 0 0 0 0 0 0 0 0 0 0 0 21 0 0 0 0 0 0 0 0 0 0 0 0 0 0 0 0 0 0 0 0 0 0 -16 0 0 21 0 0 11 0 0 0 -8 0 0 0 0 0 0 0 0 0 0 0 0 0 0 0 0 0 0 0 0 8 0 0 0 0 0 0 0 0 0 0 0 0 0 0 0 0 0
2.2073 13.6938 8.8766 -7.3111 -2.3654 74.8412 0.0000 0.0000 0.0000 -16.5167 4.2290 -52.0881 30.4459 17.1514 122.0125 0.5395 -6.5688 -13.1824 0.4310 -4.2133 -11.6774 0.0000 0.0000 0.0000 16.7992 2.2134 -56.0434 -27.1821 -18.7154 111.4411 -0.0892 5.0687 -5.9616 -0.0078 0.5692 -1.5641 -4.4100 5.3293 7.9236 -1.3364 6.5769 -5.0943 -0.0961 3.4498 -10.2436 2.9783 -5.2351 -18.7906 2.2630 -9.2028 31.3712 -1.1597 -3.2216 13.7859 0.0000 0.0000 0.0000 81.5434 -66.9309 -81.8318 57.6467 -55.6495 -32.3905 -0.0000 0.0000 -38.1149 36.7422 4.7809 3.5603 -7.1250 0.0000 -0.0000 8.4350 35.8307 -1.9179 0.0000 0.0000 0.0000 -33.1519 44.6032 -32.7488 -65.0830 57.5189 -38.6009 0.0000 -0.0000 -61.3382 -41.1762 -8.7350 7.5666 7.1250 -0.0000 -0.0000 -12.7099 -41.1791 -1.2198
2.2072 13.6987 8.8938 -7.2602 -2.3096 75.0108 0.0000 0.0000 0.0000 -16.3983 4.1858 -51.8846 30.4407 17.1545 121.9950 0.5262 -6.5624 -13.0275 0.4192 -4.1557 -11.5151 0.0000 0.0000 0.0000 16.5854 2.3314 -55.9684 -27.1162 -18.7398 111.2357 -0.0692 0.3456 -4.8568 -0.0295 1.1096 -3.0505 -4.3101 5.2998 7.7039 -1.3670 6.5598 -5.1249 -0.1588 3.4360 -10.1296 2.9391 -5.2123 -18.8853 2.2365 -9.1683 31.5893 -1.1652 -3.2023 13.9018 0.0000 0.0000 0.0000 82.6337 -65.9892 -82.9303 55.5884 -55.0149 -30.6975 -0.0000 0.0000 -38.0153 36.5348 5.0451 3.7278 -7.1250 0.0000 -0.0000 8.2810 36.1438 -1.8184 0.0000 0.0000 0.0000 -34.4490 44.1842 -34.1145 -62.2031 56.8690 -36.1802 0.0000 -0.0000 -60.4174 -38.8796 -10.1940 8.1214 7.1250 -0.0000 -0.0000 -10.7647 -42.7308 -0.6104
2.2071 13.7026 8.9074 -7.1995 -2.3106 75.1956 0.0000 0.0000 0.0000 -16.3373 4.0710 -51.6688 30.4015 17.1778 121.8623 0.5073 -6.5396 -12.8019 0.3961 -4.0407 -11.1913 0.0000 0.0000 0.0000 16.3056 2.4603 -55.8316 -27.0110 -18.7782 110.9087 -0.0331 0.1516 -3.3822 -0.0193 0.8971 -2.4657 -4.2663 5.2788 7.4625 -1.4143 6.5467 -5.1611 -0.2079 3.4276 -10.0143 2.9389 -5.1816 -18.9527 2.1531 -9.1101 31.7499 -1.1933 -3.1796 13.9810 -0.0000 -0.0000 0.0000 83.6517 -65.0905 -83.8913 53.6574 -54.3682 -29.1216 -0.0000 0.0000 -37.9805 36.4654 4.9232 3.6291 -7.1250 0.0000 -0.0000 8.2133 35.9902 -1.8344 -0.0000 -0.0000 0.0000 -35.7742 43.6926 -35.4586 -59.4263 56.1551 -33.8642 0.0000 -0.0000 -59.5398 -38.0637 -11.0196 8.5129 7.1250 -0.0000 -0.0000 -10.0687 -43.6418 -0.3412
2.2059 13.7056 8.9292 -7.1359 -2.3182 75.4188 0.0000 0.0000 0.0000 -16.3211 3.9646 -51.5521 30.3294 17.2204 121.6182 0.4954 -6.3478 -12.6355 0.4220 -4.1692 -11.5533 0.0000 0.0000 0.0000 16.0243 2.6105 -55.7844 -26.8738 -18.8273 110.4830 -0.0126 0.1698 -2.0624 -0.0143 0.7708 -2.1184 -4.2344 5.2329 7.1766 -1.4492 6.5020 -5.1969 -0.2274 3.4054 -9.8741 2.8659 -5.1751 -18.9632 2.2137 -9.0947 31.7066 -1.1545 -3.1752 13.9725 -0.0000 0.0000 0.0000 84.3788 -64.1687 -84.4780 51.7933 -53.6937 -27.6129 -0.0000 0.0000 -37.8378 36.5447 4.5380 3.3560 -7.1250 0.0000 -0.0000 8.2503 35.5214 -1.9379 -0.0000 0.0000 0.0000 -36.9411 43.3196 -36.4671 -57.7691 55.6856 -32.4916 0.0000 -0.0000 -60.0964 -37.0658 -11.9273 8.8728 7.1250 -0.0000 -0.0000 -9.1792 -44.6097 -0.0892
2.2052 13.7084 8.9475 -7.0703 -2.3153 75.6292 0.0000 0.0000 0.0000 -16.2755 3.8377 -51.4007 30.2530 17.2651 121.3607 0.4757 -6.2346 -12.3824 0.4258 -4.1879 -11.6060 0.0000 0.0000 0.0000 15.7534 2.7570 -55.7127 -26.7324 -18.8767 110.0454 0.0000 -0.4927 -0.6997 -0.0095 0.6302 -1.7317 -4.1932 5.1901 6.9120 -1.4826 6.4613 -5.2395 -0.2541 3.3845 -9.7534 2.8275 -5.1498 -18.9945 2.2082 -9.0481 31.7439 -1.1443 -3.1583 13.9974 -0.0000 -0.0000 0.0000 85.1244 -63.2612 -85.0914 49.9655 -52.9816 -26.1466 -0.0000 0.0000 -37.6557 36.5431 4.3088 3.1870 -7.1250 0.0000 -0.0000 8.2309 35.2397 -1.9903 -0.0000 -0.0000 0.0000 -38.1476 42.9219 -37.5563 -55.7967 55.0817 -30.8682 0.0000 -0.0000 -60.0593 -36.0216 -12.8112 9.1590 7.1250 -0.0000 -0.0000 -8.2119 -45.5217 0.1065
2.2044 13.7101 8.9657 -7.0019 -2.3110 75.8509 0.0000 0.0000 0.0000 -16.2281 3.6845 -51.2591 30.1525 17.3232 121.0226 0.4508 -6.1179 -12.0576 0.4304 -4.2100 -11.6681 0.0000 0.0000 0.0000 15.4872 2.9165 -55.6365 -26.5650 -18.9336 109.5289 -0.0000 -0.8369 0.5947 -0.0058 0.4905 -1.3478 -4.1516 5.1396 6.6374 -1.5120 6.4109 -5.2897 -0.2750 3.3592 -9.6354 2.7825 -5.1211 -19.0085 2.2150 -8.9958 31.7539 -1.1260 -3.1398 14.0078 -0.0000 0.0000 0.0000 85.8003 -62.3709 -85.6095 48.1803 -52.2347 -24.7282 -0.0000 0.0000 -37.3791 36.5259 4.0149 2.9686 -7.1250 0.0000 -0.0000 8.1931 34.8777 -2.0538 -0.0000 0.0000 0.0000 -39.3343 42.5600 -38.5950 -54.0080 54.4894 -29.4068 0.0000 -0.0000 -60.1206 -35.1668 -13.6165 9.4178 7.1250 -0.0000 -0.0000 -7.3955 -46.3511 0.2479
2.2036 13.7104 8.9838 -6.9351 -2.2949 76.0803 0.0000 0.0000 0.0000 -16.1639 3.5113 -51.1172 30.0285 17.3938 120.6069 0.4198 -6.0127 -11.6476 0.4329 -4.2223 -11.7030 0.0000 0.0000 0.0000 15.2410 3.0910 -55.5392 -26.3701 -18.9979 108.9289 -0.0096 -1.1944 1.8140 -0.0031 0.3571 -0.9812 -4.0971 5.0819 6.3508 -1.5351 6.3531 -5.3451 -0.2944 3.3298 -9.5150 2.7400 -5.0809 -19.0127 2.2177 -8.9259 31.7609 -1.1064 -3.1145 14.0143 0.0000 -0.0000 0.0000 86.4275 -61.4971 -86.0601 46.4252 -51.4479 -23.3480 -0.0000 0.0000 -36.9721 36.4693 3.7202 2.7457 -7.1250 0.0000 -0.0000 8.1224 34.5130 -2.1085 0.0000 -0.0000 0.0000 -40.5072 42.2383 -39.6045 -52.3513 53.9009 -28.0631 0.0000 -0.0000 -60.1947 -34.4282 -14.3493 9.6410 7.1250 -0.0000 -0.0000 -6.6685 -47.0997 0.3470
2.2027 13.7093 9.0011 -6.8719 -2.2729 76.3131 0.0000 0.0000 0.0000 -16.0861 3.3188 -50.9666 29.8784 17.4776 120.1062 0.3810 -5.9214 -11.1203 0.4316 -4.2161 -11.6855 0.0000 0.0000 0.0000 15.0083 3.2837 -55.4105 -26.1444 -19.0697 108.2370 -0.0269 -1.5509 2.9475 -0.0014 0.2410 -0.6623 -4.0361 5.0221 6.0544 -1.5544 6.2936 -5.4045 -0.3129 3.2994 -9.3930 2.6980 -5.0333 -19.0091 2.2201 -8.8458 31.7773 -1.0852 -3.0848 14.0233 -0.0000 -0.0000 0.0000 87.0432 -60.6453 -86.4876 44.6885 -50.6149 -21.9977 -0.0000 0.0000 -36.4119 36.3595 3.4338 2.5247 -7.1250 0.0000 -0.0000 8.0086 34.1569 -2.1483 -0.0000 -0.0000 0.0000 -41.6706 41.9495 -40.6116 -50.7354 53.2878 -26.7626 0.0000 -0.0000 -60.1027 -33.7032 -14.9244 9.7473 7.1250 -0.0000 -0.0000 -5.9402 -47.6556 0.3905
